<svg xmlns="http://www.w3.org/2000/svg" xmlns:xlink="http://www.w3.org/1999/xlink" width="1024" zoomAndPan="magnify" viewBox="0 0 768 767.999994" height="1024" preserveAspectRatio="xMidYMid meet" version="1.0"><defs><clipPath id="20c9fbba62"><path d="M 41.019531 42.519531 L 601 42.519531 L 601 725.769531 L 41.019531 725.769531 Z M 41.019531 42.519531 " clip-rule="nonzero"/></clipPath><clipPath id="31c4f1c6ba"><path d="M 19 547 L 158 547 L 158 683.476562 L 19 683.476562 Z M 19 547 " clip-rule="nonzero"/></clipPath><clipPath id="d2234ca361"><path d="M 419 148 L 559.960938 148 L 559.960938 289 L 419 289 Z M 419 148 " clip-rule="nonzero"/></clipPath><clipPath id="62e4c942f1"><path d="M 0.0195312 0.519531 L 139 0.519531 L 139 140 L 0.0195312 140 Z M 0.0195312 0.519531 " clip-rule="nonzero"/></clipPath><clipPath id="24776abac8"><rect x="0" width="560" y="0" height="684"/></clipPath><clipPath id="bd4ab9ccbe"><path d="M 560.148438 95 L 690 95 L 690 224 L 560.148438 224 Z M 560.148438 95 " clip-rule="nonzero"/></clipPath><clipPath id="d6501f28ff"><path d="M 624 46.359375 L 673 46.359375 L 673 96 L 624 96 Z M 624 46.359375 " clip-rule="nonzero"/></clipPath><clipPath id="fa47870486"><path d="M 673 81 L 734.898438 81 L 734.898438 143 L 673 143 Z M 673 81 " clip-rule="nonzero"/></clipPath></defs><g clip-path="url(#20c9fbba62)"><g transform="matrix(1, 0, 0, 1, 41, 42)"><g clip-path="url(#24776abac8)"><g clip-path="url(#31c4f1c6ba)"><path fill="#2c2e29" d="M 19.863281 624.003906 C 15.148438 586.675781 42.09375 552.527344 80.050781 547.734375 C 118.011719 542.9375 152.605469 569.308594 157.320312 606.640625 C 162.039062 643.972656 135.089844 678.121094 97.132812 682.914062 C 59.175781 687.707031 24.578125 661.335938 19.863281 624.003906 Z M 38.820312 614.625 C 38.820312 642.085938 61.078125 664.351562 88.542969 664.351562 C 116.007812 664.351562 138.269531 642.089844 138.269531 614.625 C 138.269531 587.160156 116.011719 564.898438 88.542969 564.898438 C 61.078125 564.898438 38.820312 587.164062 38.820312 614.625 Z M 38.820312 614.625 " fill-opacity="1" fill-rule="nonzero"/></g><path fill="#d9d9d9" d="M 38.816406 614.625 C 38.816406 612.996094 38.894531 611.371094 39.054688 609.75 C 39.214844 608.128906 39.453125 606.519531 39.769531 604.921875 C 40.089844 603.328125 40.484375 601.75 40.957031 600.191406 C 41.429688 598.632812 41.976562 597.101562 42.601562 595.59375 C 43.222656 594.089844 43.917969 592.621094 44.6875 591.183594 C 45.453125 589.746094 46.289062 588.351562 47.195312 587 C 48.101562 585.644531 49.070312 584.335938 50.101562 583.078125 C 51.136719 581.820312 52.226562 580.613281 53.378906 579.464844 C 54.53125 578.3125 55.738281 577.21875 56.996094 576.1875 C 58.253906 575.152344 59.5625 574.183594 60.914062 573.277344 C 62.269531 572.375 63.664062 571.539062 65.101562 570.769531 C 66.535156 570.003906 68.007812 569.308594 69.511719 568.683594 C 71.015625 568.058594 72.546875 567.511719 74.105469 567.039062 C 75.664062 566.566406 77.242188 566.171875 78.839844 565.855469 C 80.4375 565.535156 82.046875 565.296875 83.667969 565.136719 C 85.289062 564.976562 86.914062 564.898438 88.542969 564.898438 C 90.167969 564.898438 91.792969 564.976562 93.414062 565.136719 C 95.035156 565.296875 96.644531 565.535156 98.242188 565.855469 C 99.839844 566.171875 101.417969 566.566406 102.976562 567.039062 C 104.535156 567.511719 106.066406 568.058594 107.570312 568.683594 C 109.074219 569.308594 110.546875 570.003906 111.980469 570.769531 C 113.417969 571.539062 114.8125 572.375 116.167969 573.277344 C 117.523438 574.183594 118.828125 575.152344 120.085938 576.1875 C 121.347656 577.21875 122.550781 578.3125 123.703125 579.464844 C 124.855469 580.613281 125.945312 581.820312 126.980469 583.078125 C 128.011719 584.335938 128.980469 585.644531 129.886719 587 C 130.792969 588.351562 131.628906 589.746094 132.394531 591.183594 C 133.164062 592.621094 133.859375 594.089844 134.480469 595.59375 C 135.105469 597.101562 135.652344 598.632812 136.125 600.191406 C 136.597656 601.75 136.996094 603.328125 137.3125 604.921875 C 137.628906 606.519531 137.867188 608.128906 138.027344 609.75 C 138.1875 611.371094 138.265625 612.996094 138.265625 614.625 C 138.265625 616.253906 138.1875 617.878906 138.027344 619.5 C 137.867188 621.121094 137.628906 622.726562 137.3125 624.324219 C 136.996094 625.921875 136.597656 627.5 136.125 629.058594 C 135.652344 630.617188 135.105469 632.148438 134.480469 633.652344 C 133.859375 635.160156 133.164062 636.628906 132.394531 638.066406 C 131.628906 639.5 130.792969 640.898438 129.886719 642.25 C 128.980469 643.605469 128.011719 644.910156 126.980469 646.171875 C 125.945312 647.429688 124.855469 648.632812 123.703125 649.785156 C 122.550781 650.9375 121.347656 652.03125 120.085938 653.0625 C 118.828125 654.097656 117.523438 655.066406 116.167969 655.96875 C 114.8125 656.875 113.417969 657.710938 111.980469 658.480469 C 110.546875 659.246094 109.074219 659.941406 107.570312 660.566406 C 106.066406 661.1875 104.535156 661.738281 102.976562 662.210938 C 101.417969 662.683594 99.839844 663.078125 98.242188 663.394531 C 96.644531 663.714844 95.035156 663.953125 93.414062 664.109375 C 91.792969 664.269531 90.167969 664.351562 88.542969 664.351562 C 86.914062 664.351562 85.289062 664.269531 83.667969 664.109375 C 82.046875 663.953125 80.4375 663.714844 78.839844 663.394531 C 77.242188 663.078125 75.664062 662.683594 74.105469 662.210938 C 72.546875 661.738281 71.015625 661.1875 69.511719 660.566406 C 68.007812 659.941406 66.535156 659.246094 65.101562 658.480469 C 63.664062 657.710938 62.269531 656.875 60.914062 655.96875 C 59.5625 655.066406 58.253906 654.097656 56.996094 653.0625 C 55.738281 652.03125 54.53125 650.9375 53.378906 649.785156 C 52.226562 648.632812 51.136719 647.429688 50.101562 646.171875 C 49.070312 644.910156 48.101562 643.605469 47.195312 642.25 C 46.289062 640.898438 45.453125 639.5 44.6875 638.066406 C 43.917969 636.628906 43.222656 635.160156 42.601562 633.652344 C 41.976562 632.148438 41.429688 630.617188 40.957031 629.058594 C 40.484375 627.5 40.089844 625.921875 39.769531 624.324219 C 39.453125 622.726562 39.214844 621.121094 39.054688 619.5 C 38.894531 617.878906 38.816406 616.253906 38.816406 614.625 Z M 38.816406 614.625 " fill-opacity="1" fill-rule="nonzero"/><path fill="#2c2e29" d="M 352.957031 552.828125 L 175.5 602.707031 C 171.945312 603.703125 168.257812 601.636719 167.253906 598.078125 L 166.527344 595.488281 C 165.53125 591.933594 167.601562 588.246094 171.15625 587.246094 L 348.613281 537.363281 C 352.167969 536.367188 355.855469 538.4375 356.855469 541.992188 L 357.582031 544.585938 C 358.582031 548.136719 356.507812 551.828125 352.957031 552.828125 Z M 352.957031 552.828125 " fill-opacity="1" fill-rule="nonzero"/><path fill="#2c2e29" d="M 364 518.417969 C 364 480.347656 394.859375 449.488281 432.925781 449.488281 C 470.992188 449.488281 501.851562 480.347656 501.851562 518.417969 C 501.851562 556.484375 470.992188 587.34375 432.925781 587.34375 C 394.859375 587.34375 364 556.484375 364 518.417969 Z M 401.839844 557.804688 C 423.15625 574.460938 454.195312 570.34375 471.171875 548.621094 C 488.144531 526.890625 484.628906 495.78125 463.3125 479.125 C 442 462.472656 410.957031 466.585938 393.984375 488.316406 C 377.003906 510.039062 380.527344 541.15625 401.839844 557.804688 Z M 401.839844 557.804688 " fill-opacity="1" fill-rule="nonzero"/><path fill="#d9d9d9" d="M 401.835938 557.800781 C 400.574219 556.8125 399.359375 555.761719 398.203125 554.652344 C 397.042969 553.542969 395.941406 552.378906 394.898438 551.160156 C 393.855469 549.941406 392.875 548.671875 391.957031 547.351562 C 391.039062 546.03125 390.191406 544.667969 389.40625 543.265625 C 388.625 541.859375 387.914062 540.417969 387.273438 538.9375 C 386.632812 537.460938 386.066406 535.953125 385.574219 534.414062 C 385.082031 532.878906 384.667969 531.320312 384.328125 529.738281 C 383.992188 528.15625 383.730469 526.5625 383.550781 524.953125 C 383.367188 523.34375 383.265625 521.726562 383.242188 520.105469 C 383.21875 518.484375 383.273438 516.859375 383.40625 515.242188 C 383.542969 513.621094 383.753906 512.011719 384.046875 510.410156 C 384.339844 508.804688 384.707031 507.222656 385.15625 505.652344 C 385.601562 504.085938 386.121094 502.539062 386.71875 501.019531 C 387.316406 499.5 387.984375 498.011719 388.726562 496.558594 C 389.464844 495.101562 390.273438 493.683594 391.152344 492.304688 C 392.03125 490.925781 392.972656 489.589844 393.980469 488.300781 C 394.988281 487.015625 396.054688 485.777344 397.179688 484.59375 C 398.304688 483.40625 399.484375 482.277344 400.71875 481.207031 C 401.953125 480.136719 403.234375 479.128906 404.566406 478.179688 C 405.894531 477.234375 407.265625 476.355469 408.679688 475.542969 C 410.09375 474.730469 411.542969 473.988281 413.027344 473.320312 C 414.511719 472.648438 416.023438 472.050781 417.5625 471.527344 C 419.101562 471.007812 420.660156 470.558594 422.242188 470.191406 C 423.820312 469.820312 425.414062 469.53125 427.019531 469.316406 C 428.625 469.105469 430.234375 468.972656 431.851562 468.917969 C 433.46875 468.863281 435.082031 468.890625 436.691406 468.996094 C 438.300781 469.101562 439.902344 469.285156 441.492188 469.546875 C 443.078125 469.8125 444.652344 470.152344 446.203125 470.574219 C 447.757812 470.992188 449.285156 471.488281 450.785156 472.058594 C 452.289062 472.628906 453.757812 473.273438 455.195312 473.992188 C 456.628906 474.707031 458.027344 475.496094 459.382812 476.351562 C 460.738281 477.207031 462.050781 478.128906 463.3125 479.117188 C 464.578125 480.105469 465.789062 481.15625 466.949219 482.261719 C 468.109375 483.371094 469.210938 484.539062 470.253906 485.757812 C 471.296875 486.976562 472.277344 488.246094 473.195312 489.566406 C 474.109375 490.886719 474.960938 492.246094 475.742188 493.652344 C 476.527344 495.058594 477.238281 496.5 477.878906 497.980469 C 478.519531 499.457031 479.082031 500.964844 479.574219 502.503906 C 480.066406 504.039062 480.480469 505.597656 480.820312 507.179688 C 481.160156 508.761719 481.417969 510.355469 481.601562 511.964844 C 481.78125 513.574219 481.886719 515.191406 481.910156 516.8125 C 481.933594 518.433594 481.878906 520.054688 481.742188 521.675781 C 481.609375 523.296875 481.394531 524.90625 481.101562 526.507812 C 480.8125 528.109375 480.441406 529.695312 479.996094 531.265625 C 479.550781 532.832031 479.027344 534.375 478.429688 535.894531 C 477.835938 537.414062 477.164062 538.902344 476.425781 540.359375 C 475.683594 541.816406 474.875 543.234375 473.996094 544.613281 C 473.117188 545.992188 472.175781 547.324219 471.171875 548.613281 C 470.164062 549.902344 469.097656 551.140625 467.972656 552.324219 C 466.84375 553.511719 465.664062 554.640625 464.433594 555.710938 C 463.199219 556.78125 461.914062 557.789062 460.585938 558.734375 C 459.253906 559.683594 457.882812 560.5625 456.46875 561.375 C 455.054688 562.1875 453.605469 562.929688 452.121094 563.597656 C 450.640625 564.269531 449.128906 564.867188 447.589844 565.386719 C 446.050781 565.910156 444.488281 566.355469 442.910156 566.726562 C 441.328125 567.097656 439.734375 567.386719 438.128906 567.601562 C 436.523438 567.8125 434.914062 567.945312 433.296875 568 C 431.683594 568.054688 430.070312 568.027344 428.460938 567.921875 C 426.847656 567.816406 425.25 567.632812 423.660156 567.367188 C 422.070312 567.105469 420.5 566.765625 418.945312 566.34375 C 417.394531 565.925781 415.867188 565.429688 414.363281 564.859375 C 412.863281 564.289062 411.394531 563.644531 409.957031 562.925781 C 408.519531 562.207031 407.125 561.421875 405.769531 560.566406 C 404.410156 559.707031 403.101562 558.785156 401.835938 557.800781 Z M 401.835938 557.800781 " fill-opacity="1" fill-rule="nonzero"/><path fill="#2c2e29" d="M 351.929688 484.601562 L 198.785156 397.957031 C 195.355469 396.015625 194.152344 391.667969 196.089844 388.238281 L 196.875 386.847656 C 198.816406 383.417969 203.164062 382.214844 206.59375 384.152344 L 359.738281 470.796875 C 363.167969 472.738281 364.375 477.085938 362.433594 480.515625 L 361.648438 481.90625 C 359.710938 485.335938 355.359375 486.542969 351.929688 484.601562 Z M 351.929688 484.601562 " fill-opacity="1" fill-rule="nonzero"/><path fill="#2c2e29" d="M 452.503906 439.597656 L 447.898438 438.703125 C 444.628906 438.066406 442.492188 434.898438 443.125 431.625 L 468.113281 303.0625 C 468.75 299.792969 471.917969 297.652344 475.191406 298.289062 L 479.792969 299.183594 C 483.066406 299.820312 485.203125 302.988281 484.566406 306.257812 L 459.578125 434.824219 C 458.941406 438.09375 455.773438 440.230469 452.503906 439.597656 Z M 452.503906 439.597656 " fill-opacity="1" fill-rule="nonzero"/><path fill="#2c2e29" d="M 54.191406 352.332031 C 53.464844 314.382812 84.195312 283.015625 122.832031 282.273438 C 161.472656 281.53125 193.386719 311.695312 194.113281 349.644531 C 194.839844 387.59375 164.109375 418.960938 125.472656 419.703125 C 86.832031 420.441406 54.917969 390.28125 54.191406 352.332031 Z M 74.730469 365.601562 C 78.652344 372.585938 84.203125 379.597656 91.386719 386.648438 C 104.851562 399.8125 121.460938 403.007812 141.210938 396.222656 C 178.367188 383.453125 179.566406 338.71875 156.773438 312.183594 C 155.582031 310.796875 154.167969 309.617188 152.582031 308.695312 C 132.167969 296.824219 112.152344 297.023438 92.535156 309.292969 C 91.175781 310.152344 89.96875 311.195312 88.941406 312.386719 C 79.929688 322.894531 74.078125 333.582031 71.386719 344.453125 C 69.65625 351.472656 70.769531 358.519531 74.730469 365.601562 Z M 74.730469 365.601562 " fill-opacity="1" fill-rule="nonzero"/><path fill="#d9d9d9" d="M 74.730469 365.601562 C 70.769531 358.519531 69.65625 351.472656 71.386719 344.453125 C 74.078125 333.582031 79.929688 322.894531 88.941406 312.386719 C 89.964844 311.195312 91.175781 310.152344 92.535156 309.292969 C 112.152344 297.023438 132.164062 296.824219 152.582031 308.695312 C 154.167969 309.621094 155.582031 310.796875 156.773438 312.183594 C 179.566406 338.71875 178.367188 383.453125 141.210938 396.222656 C 121.460938 403.003906 104.855469 399.8125 91.386719 386.648438 C 84.203125 379.597656 78.652344 372.585938 74.730469 365.601562 Z M 74.730469 365.601562 " fill-opacity="1" fill-rule="nonzero"/><path fill="#2c2e29" d="M 411.757812 259.648438 L 210.980469 332.722656 C 207.28125 334.074219 203.1875 332.164062 201.839844 328.460938 L 201.15625 326.585938 C 199.808594 322.886719 201.71875 318.796875 205.417969 317.445312 L 406.195312 244.371094 C 409.898438 243.019531 413.988281 244.929688 415.335938 248.632812 L 416.019531 250.507812 C 417.367188 254.207031 415.460938 258.296875 411.757812 259.648438 Z M 411.757812 259.648438 " fill-opacity="1" fill-rule="nonzero"/><g clip-path="url(#d2234ca361)"><path fill="#ff5757" d="M 419.910156 218.222656 C 419.910156 179.550781 451.261719 148.199219 489.933594 148.199219 C 528.605469 148.199219 559.957031 179.550781 559.957031 218.222656 C 559.957031 256.894531 528.605469 288.246094 489.933594 288.246094 C 451.261719 288.246094 419.910156 256.894531 419.910156 218.222656 Z M 442.054688 216.824219 C 442.054688 243.433594 463.625 265.003906 490.234375 265.003906 C 516.839844 265.003906 538.410156 243.433594 538.410156 216.824219 C 538.410156 190.21875 516.839844 168.648438 490.234375 168.648438 C 463.625 168.648438 442.054688 190.21875 442.054688 216.824219 Z M 442.054688 216.824219 " fill-opacity="1" fill-rule="nonzero"/></g><path fill="#2c2e29" d="M 112.117188 270.4375 L 108.503906 271.191406 C 104.808594 271.964844 101.191406 269.59375 100.417969 265.902344 L 77.632812 156.839844 C 76.863281 153.144531 79.234375 149.523438 82.925781 148.753906 L 86.535156 147.996094 C 90.230469 147.226562 93.851562 149.597656 94.625 153.289062 L 117.40625 262.351562 C 118.179688 266.046875 115.808594 269.667969 112.117188 270.4375 Z M 112.117188 270.4375 " fill-opacity="1" fill-rule="nonzero"/><path fill="#ffffff" d="M 442.054688 216.824219 C 442.054688 215.25 442.132812 213.675781 442.285156 212.105469 C 442.441406 210.535156 442.671875 208.972656 442.980469 207.425781 C 443.289062 205.878906 443.671875 204.351562 444.128906 202.839844 C 444.585938 201.332031 445.117188 199.847656 445.722656 198.390625 C 446.324219 196.929688 447 195.507812 447.742188 194.113281 C 448.484375 192.722656 449.296875 191.371094 450.171875 190.058594 C 451.050781 188.746094 451.988281 187.480469 452.988281 186.261719 C 453.992188 185.042969 455.050781 183.875 456.164062 182.757812 C 457.28125 181.640625 458.449219 180.585938 459.667969 179.582031 C 460.886719 178.582031 462.152344 177.644531 463.464844 176.765625 C 464.777344 175.890625 466.128906 175.078125 467.519531 174.335938 C 468.914062 173.59375 470.335938 172.917969 471.796875 172.3125 C 473.253906 171.710938 474.738281 171.179688 476.246094 170.722656 C 477.757812 170.261719 479.285156 169.878906 480.832031 169.574219 C 482.382812 169.265625 483.941406 169.035156 485.511719 168.878906 C 487.082031 168.722656 488.65625 168.648438 490.234375 168.648438 C 491.8125 168.648438 493.386719 168.722656 494.957031 168.878906 C 496.527344 169.035156 498.085938 169.265625 499.632812 169.574219 C 501.179688 169.878906 502.707031 170.261719 504.21875 170.722656 C 505.726562 171.179688 507.210938 171.710938 508.671875 172.3125 C 510.128906 172.917969 511.550781 173.59375 512.945312 174.335938 C 514.335938 175.078125 515.6875 175.890625 517 176.765625 C 518.3125 177.644531 519.578125 178.582031 520.796875 179.582031 C 522.015625 180.585938 523.183594 181.640625 524.300781 182.757812 C 525.417969 183.875 526.476562 185.042969 527.476562 186.261719 C 528.476562 187.480469 529.414062 188.746094 530.292969 190.058594 C 531.167969 191.371094 531.980469 192.722656 532.722656 194.113281 C 533.46875 195.507812 534.140625 196.929688 534.746094 198.390625 C 535.347656 199.847656 535.878906 201.332031 536.335938 202.839844 C 536.796875 204.351562 537.179688 205.878906 537.484375 207.425781 C 537.792969 208.972656 538.023438 210.535156 538.179688 212.105469 C 538.335938 213.675781 538.410156 215.25 538.410156 216.824219 C 538.410156 218.402344 538.335938 219.976562 538.179688 221.546875 C 538.023438 223.117188 537.792969 224.679688 537.484375 226.226562 C 537.179688 227.773438 536.796875 229.300781 536.335938 230.8125 C 535.878906 232.320312 535.347656 233.804688 534.746094 235.261719 C 534.140625 236.722656 533.46875 238.144531 532.722656 239.539062 C 531.980469 240.929688 531.167969 242.28125 530.292969 243.59375 C 529.414062 244.90625 528.476562 246.171875 527.476562 247.390625 C 526.476562 248.609375 525.417969 249.777344 524.300781 250.894531 C 523.183594 252.007812 522.015625 253.066406 520.796875 254.070312 C 519.578125 255.070312 518.3125 256.007812 517 256.886719 C 515.6875 257.761719 514.335938 258.574219 512.945312 259.316406 C 511.550781 260.058594 510.128906 260.734375 508.671875 261.339844 C 507.210938 261.941406 505.726562 262.472656 504.21875 262.929688 C 502.707031 263.390625 501.179688 263.773438 499.632812 264.078125 C 498.085938 264.386719 496.527344 264.617188 494.957031 264.773438 C 493.386719 264.929688 491.8125 265.003906 490.234375 265.003906 C 488.65625 265.003906 487.082031 264.929688 485.511719 264.773438 C 483.941406 264.617188 482.382812 264.386719 480.832031 264.078125 C 479.285156 263.773438 477.757812 263.390625 476.246094 262.929688 C 474.738281 262.472656 473.253906 261.941406 471.796875 261.339844 C 470.335938 260.734375 468.914062 260.058594 467.519531 259.316406 C 466.128906 258.574219 464.777344 257.761719 463.464844 256.886719 C 462.152344 256.007812 460.886719 255.070312 459.667969 254.070312 C 458.449219 253.066406 457.28125 252.007812 456.164062 250.894531 C 455.050781 249.777344 453.992188 248.609375 452.988281 247.390625 C 451.988281 246.171875 451.050781 244.90625 450.171875 243.59375 C 449.296875 242.28125 448.484375 240.929688 447.742188 239.539062 C 447 238.144531 446.324219 236.722656 445.722656 235.261719 C 445.117188 233.804688 444.585938 232.320312 444.128906 230.8125 C 443.671875 229.300781 443.289062 227.773438 442.980469 226.226562 C 442.671875 224.679688 442.441406 223.117188 442.285156 221.546875 C 442.132812 219.976562 442.054688 218.402344 442.054688 216.824219 Z M 442.054688 216.824219 " fill-opacity="1" fill-rule="nonzero"/><path fill="#2c2e29" d="M 407.078125 200.675781 L 145.5625 107.554688 C 142.707031 106.539062 141.21875 103.402344 142.230469 100.550781 L 143.9375 95.757812 C 144.957031 92.902344 148.09375 91.414062 150.945312 92.429688 L 412.464844 185.550781 C 415.320312 186.566406 416.808594 189.707031 415.792969 192.558594 L 414.085938 197.347656 C 413.070312 200.203125 409.929688 201.695312 407.078125 200.675781 Z M 407.078125 200.675781 " fill-opacity="1" fill-rule="nonzero"/><g clip-path="url(#62e4c942f1)"><path fill="#2c2e29" d="M 0.117188 69.847656 C 0.117188 31.558594 31.152344 0.519531 69.441406 0.519531 C 107.730469 0.519531 138.769531 31.558594 138.769531 69.847656 C 138.769531 108.136719 107.734375 139.175781 69.441406 139.175781 C 31.152344 139.171875 0.117188 108.132812 0.117188 69.847656 Z M 74.914062 117.671875 C 100.785156 114.539062 119.125 90.277344 115.878906 63.476562 C 112.636719 36.679688 89.035156 17.496094 63.167969 20.621094 C 37.300781 23.753906 18.957031 48.015625 22.203125 74.816406 C 25.445312 101.613281 49.046875 120.800781 74.914062 117.671875 Z M 74.914062 117.671875 " fill-opacity="1" fill-rule="nonzero"/></g><path fill="#ffffff" d="M 22.203125 74.769531 C 22.011719 73.179688 21.894531 71.585938 21.851562 69.984375 C 21.8125 68.386719 21.847656 66.789062 21.957031 65.195312 C 22.066406 63.597656 22.253906 62.015625 22.515625 60.4375 C 22.777344 58.863281 23.113281 57.308594 23.523438 55.769531 C 23.929688 54.230469 24.414062 52.714844 24.964844 51.226562 C 25.519531 49.738281 26.144531 48.28125 26.835938 46.855469 C 27.527344 45.429688 28.285156 44.046875 29.109375 42.699219 C 29.9375 41.351562 30.824219 40.050781 31.769531 38.796875 C 32.71875 37.542969 33.726562 36.339844 34.789062 35.1875 C 35.855469 34.035156 36.972656 32.941406 38.140625 31.90625 C 39.308594 30.867188 40.523438 29.890625 41.785156 28.980469 C 43.046875 28.066406 44.351562 27.21875 45.695312 26.441406 C 47.039062 25.660156 48.417969 24.953125 49.828125 24.3125 C 51.242188 23.675781 52.683594 23.109375 54.148438 22.617188 C 55.617188 22.125 57.105469 21.707031 58.613281 21.367188 C 60.121094 21.027344 61.640625 20.765625 63.175781 20.578125 C 64.707031 20.394531 66.25 20.285156 67.792969 20.257812 C 69.339844 20.226562 70.882812 20.277344 72.425781 20.40625 C 73.96875 20.535156 75.5 20.738281 77.023438 21.023438 C 78.550781 21.308594 80.054688 21.667969 81.546875 22.105469 C 83.039062 22.539062 84.503906 23.050781 85.949219 23.636719 C 87.394531 24.222656 88.804688 24.878906 90.1875 25.609375 C 91.570312 26.335938 92.914062 27.132812 94.222656 28 C 95.53125 28.863281 96.796875 29.792969 98.015625 30.785156 C 99.238281 31.777344 100.410156 32.828125 101.53125 33.9375 C 102.652344 35.050781 103.71875 36.214844 104.730469 37.433594 C 105.742188 38.652344 106.695312 39.917969 107.589844 41.230469 C 108.480469 42.546875 109.308594 43.902344 110.074219 45.296875 C 110.839844 46.695312 111.535156 48.128906 112.167969 49.59375 C 112.796875 51.0625 113.355469 52.554688 113.839844 54.078125 C 114.328125 55.601562 114.746094 57.144531 115.085938 58.707031 C 115.425781 60.269531 115.695312 61.847656 115.886719 63.4375 C 116.078125 65.023438 116.195312 66.621094 116.238281 68.21875 C 116.277344 69.820312 116.242188 71.417969 116.132812 73.011719 C 116.019531 74.605469 115.835938 76.191406 115.574219 77.765625 C 115.3125 79.339844 114.976562 80.898438 114.566406 82.4375 C 114.160156 83.976562 113.675781 85.488281 113.121094 86.980469 C 112.570312 88.46875 111.945312 89.925781 111.253906 91.347656 C 110.5625 92.773438 109.804688 94.160156 108.976562 95.503906 C 108.152344 96.851562 107.265625 98.152344 106.316406 99.40625 C 105.367188 100.664062 104.363281 101.867188 103.296875 103.015625 C 102.234375 104.167969 101.117188 105.261719 99.949219 106.300781 C 98.78125 107.335938 97.566406 108.3125 96.304688 109.226562 C 95.039062 110.136719 93.738281 110.984375 92.394531 111.765625 C 91.050781 112.542969 89.671875 113.253906 88.257812 113.890625 C 86.847656 114.53125 85.40625 115.097656 83.941406 115.589844 C 82.472656 116.082031 80.984375 116.496094 79.476562 116.835938 C 77.96875 117.175781 76.449219 117.441406 74.914062 117.625 C 73.378906 117.8125 71.839844 117.917969 70.296875 117.949219 C 68.75 117.976562 67.207031 117.925781 65.664062 117.800781 C 64.121094 117.671875 62.589844 117.464844 61.0625 117.183594 C 59.539062 116.898438 58.03125 116.539062 56.542969 116.101562 C 55.050781 115.664062 53.582031 115.152344 52.140625 114.566406 C 50.695312 113.984375 49.285156 113.324219 47.902344 112.597656 C 46.519531 111.867188 45.171875 111.070312 43.867188 110.207031 C 42.558594 109.34375 41.292969 108.414062 40.074219 107.421875 C 38.851562 106.429688 37.679688 105.375 36.558594 104.265625 C 35.4375 103.15625 34.371094 101.992188 33.359375 100.773438 C 32.34375 99.554688 31.394531 98.289062 30.5 96.972656 C 29.609375 95.660156 28.777344 94.304688 28.015625 92.90625 C 27.25 91.511719 26.550781 90.078125 25.921875 88.609375 C 25.292969 87.144531 24.734375 85.648438 24.246094 84.125 C 23.757812 82.605469 23.34375 81.0625 23.003906 79.496094 C 22.660156 77.933594 22.394531 76.359375 22.203125 74.769531 Z M 22.203125 74.769531 " fill-opacity="1" fill-rule="nonzero"/></g></g></g><g clip-path="url(#bd4ab9ccbe)"><path fill="#ff5757" d="M 688.277344 158.199219 C 688.136719 158.082031 687.984375 157.984375 687.828125 157.902344 L 687.707031 157.84375 C 687.667969 157.824219 687.628906 157.804688 687.585938 157.792969 L 687.464844 157.746094 C 687.421875 157.726562 687.402344 157.722656 687.371094 157.710938 C 677.140625 154.328125 666.957031 150.796875 656.863281 147.039062 C 649.195312 144.222656 642.832031 138.089844 639.78125 130.507812 C 639.550781 129.949219 639.339844 129.363281 639.140625 128.789062 C 636.527344 120.992188 633.148438 110.644531 630.542969 102.804688 C 630.253906 101.925781 629.382812 99.371094 629.109375 98.542969 C 629.109375 98.542969 628.988281 98.1875 628.988281 98.1875 C 628.730469 97.320312 628.152344 96.539062 627.351562 96.074219 C 626.0625 95.3125 624.332031 95.449219 623.183594 96.410156 C 622.746094 96.765625 622.398438 97.234375 622.167969 97.746094 C 621.101562 100.40625 620.046875 103.109375 619.011719 105.777344 C 616.175781 113.121094 613.25 120.828125 610.492188 128.195312 C 609.1875 131.664062 607.226562 134.882812 604.722656 137.617188 C 601.910156 140.703125 598.425781 143.167969 594.578125 144.789062 C 593.636719 145.191406 591.464844 145.984375 590.457031 146.375 C 582.183594 149.53125 571.414062 153.613281 563.179688 156.773438 C 560.863281 157.714844 560.171875 160.675781 561.773438 162.566406 C 562.195312 163.070312 562.773438 163.445312 563.386719 163.65625 C 573.488281 167.246094 583.792969 170.777344 593.929688 174.242188 C 595.746094 174.871094 597.511719 175.671875 599.1875 176.640625 C 604.238281 179.554688 608.382812 184.023438 610.921875 189.277344 C 611.289062 190.042969 611.632812 190.832031 611.9375 191.628906 C 615.699219 201.523438 619.378906 211.550781 622.851562 221.546875 C 622.929688 221.765625 623.039062 222.105469 623.132812 222.316406 C 623.753906 223.738281 625.496094 224.296875 626.859375 223.59375 C 627.324219 223.359375 627.710938 222.984375 627.96875 222.53125 L 628.035156 222.410156 C 628.058594 222.371094 628.078125 222.328125 628.09375 222.285156 L 628.148438 222.160156 L 628.222656 221.976562 C 632.167969 212.046875 636.292969 201.992188 640.160156 192.039062 C 640.851562 190.28125 641.703125 188.59375 642.699219 187 C 645.1875 183.019531 648.625 179.640625 652.648438 177.21875 C 653.949219 176.429688 655.320312 175.746094 656.730469 175.160156 C 666.320312 171.480469 676.058594 167.535156 685.566406 163.609375 L 686.953125 163.039062 L 687.296875 162.894531 L 687.472656 162.824219 C 687.898438 162.65625 688.296875 162.386719 688.597656 162.027344 C 689.558594 160.910156 689.417969 159.125 688.273438 158.199219 Z M 688.277344 158.199219 " fill-opacity="1" fill-rule="nonzero"/></g><g clip-path="url(#d6501f28ff)"><path fill="#ff5757" d="M 625.058594 72.679688 C 625.214844 72.8125 625.40625 72.910156 625.59375 72.972656 C 628.476562 73.949219 631.371094 74.886719 634.265625 75.832031 C 635.617188 76.277344 636.921875 76.886719 638.121094 77.660156 C 640.847656 79.398438 643.042969 81.980469 644.328125 84.957031 C 644.757812 85.964844 645.101562 87.011719 645.472656 88.046875 C 646.234375 90.199219 646.960938 92.363281 647.664062 94.535156 C 647.726562 94.730469 647.839844 94.917969 648 95.066406 C 648.617188 95.652344 649.65625 95.484375 650.0625 94.738281 C 651.292969 91.871094 652.5 88.992188 653.664062 86.101562 C 655.34375 81.910156 658.625 78.414062 662.683594 76.441406 C 662.917969 76.332031 663.160156 76.214844 663.398438 76.113281 C 664.953125 75.453125 668.144531 74.070312 669.746094 73.367188 L 671.777344 72.484375 C 671.855469 72.449219 671.980469 72.398438 672.058594 72.363281 C 672.753906 72.03125 672.859375 71.050781 672.253906 70.582031 C 672.152344 70.503906 672.03125 70.445312 671.914062 70.410156 C 669.011719 69.484375 666.136719 68.492188 663.285156 67.429688 C 658.835938 65.800781 655.238281 62.132812 653.648438 57.683594 C 653.53125 57.351562 653.414062 57.007812 653.3125 56.667969 C 652.421875 53.765625 651.519531 50.742188 650.535156 47.878906 C 649.847656 46.359375 647.691406 46.453125 647.105469 47.996094 C 646.273438 50.070312 645.398438 52.378906 644.589844 54.472656 C 644.089844 55.753906 643.613281 57.191406 642.96875 58.40625 C 641.121094 61.980469 637.976562 64.863281 634.234375 66.351562 C 631.710938 67.34375 628.066406 68.734375 625.550781 69.738281 C 625.289062 69.835938 625.054688 69.992188 624.859375 70.210938 C 624.214844 70.921875 624.304688 72.085938 625.054688 72.683594 Z M 625.058594 72.679688 " fill-opacity="1" fill-rule="nonzero"/></g><g clip-path="url(#fa47870486)"><path fill="#ff5757" d="M 733.742188 111.152344 C 730.070312 110.023438 726.425781 108.808594 722.832031 107.460938 C 717.292969 105.429688 712.851562 100.804688 710.976562 95.230469 C 710.660156 94.339844 710.101562 92.246094 709.816406 91.300781 C 709.03125 88.582031 708.21875 85.875 707.351562 83.183594 C 707.324219 83.097656 707.285156 82.984375 707.246094 82.894531 C 706.21875 80.640625 703.03125 80.800781 702.183594 83.101562 C 700.753906 86.628906 699.378906 90.171875 698.027344 93.726562 C 697.730469 94.507812 697.390625 95.269531 697.003906 96.007812 C 695.082031 99.714844 692.03125 102.835938 688.347656 104.816406 C 687.792969 105.113281 687.222656 105.386719 686.644531 105.636719 C 686.214844 105.8125 683.980469 106.699219 683.476562 106.890625 C 681.492188 107.671875 677.230469 109.335938 675.328125 110.121094 C 674.390625 110.546875 673.792969 111.578125 673.886719 112.601562 C 673.953125 113.574219 674.644531 114.46875 675.578125 114.761719 C 679.191406 115.953125 682.824219 117.085938 686.457031 118.226562 C 688.136719 118.757812 689.761719 119.492188 691.257812 120.4375 C 694.660156 122.566406 697.402344 125.769531 699 129.460938 C 699.128906 129.765625 699.261719 130.082031 699.375 130.398438 C 700.683594 133.964844 701.878906 137.578125 703.015625 141.207031 C 703.039062 141.289062 703.082031 141.4375 703.113281 141.519531 C 703.601562 142.84375 705.363281 143.117188 706.273438 142.0625 C 706.429688 141.886719 706.539062 141.671875 706.628906 141.460938 L 706.765625 141.144531 C 708.242188 137.761719 709.734375 134.382812 711.132812 130.96875 C 711.460938 130.179688 711.828125 129.410156 712.238281 128.664062 C 712.648438 127.921875 713.09375 127.195312 713.585938 126.503906 C 715.972656 123.105469 719.285156 120.367188 723.074219 118.65625 C 726.511719 117.144531 730.214844 115.425781 733.640625 113.886719 L 733.71875 113.851562 L 733.773438 113.828125 C 733.980469 113.738281 734.164062 113.601562 734.3125 113.425781 C 734.949219 112.679688 734.660156 111.480469 733.738281 111.152344 Z M 733.742188 111.152344 " fill-opacity="1" fill-rule="nonzero"/></g></svg>